<?xml version="1.0" standalone="no"?>
<!DOCTYPE svg PUBLIC "-//W3C//DTD SVG 20010904//EN"
 "http://www.w3.org/TR/2001/REC-SVG-20010904/DTD/svg10.dtd">
<svg version="1.0" xmlns="http://www.w3.org/2000/svg"
 width="3958.000000pt" height="4432.000000pt" viewBox="0 0 3958.000000 4432.000000"
 preserveAspectRatio="xMidYMid meet">

<g transform="translate(0.000000,4432.000000) scale(0.100000,-0.100000)"
fill="#000000" stroke="none">
<path d="M34615 44303 c-458 -30 -980 -149 -1259 -287 -99 -49 -109 -52 -154
-45 -132 22 -387 4 -597 -41 -426 -93 -938 -339 -1192 -573 l-42 -38 -113 -3
c-83 -3 -139 -10 -210 -29 -531 -144 -1323 -684 -1486 -1013 -23 -48 -30 -53
-128 -102 -1015 -505 -1738 -1672 -1969 -3182 -15 -96 -28 -175 -29 -176 -7
-6 -813 -284 -1103 -380 l-373 -124 -112 34 c-1322 399 -4474 759 -7683 876
-762 28 -974 32 -2015 37 -1074 5 -1632 -1 -2340 -27 -3555 -132 -6200 -596
-7748 -1360 -849 -419 -1355 -908 -1547 -1495 -56 -169 -75 -306 -80 -550 -6
-341 -38 -418 -277 -658 -372 -375 -562 -846 -545 -1352 15 -443 179 -836 492
-1176 42 -46 88 -107 102 -136 49 -106 56 -395 13 -563 -57 -223 -167 -373
-471 -641 -216 -192 -435 -573 -505 -882 -25 -113 -30 -364 -9 -489 57 -343
259 -673 595 -972 194 -172 245 -274 245 -486 0 -227 -52 -316 -305 -526 -91
-75 -223 -189 -295 -253 -177 -157 -594 -575 -746 -747 -810 -916 -1394 -1928
-1779 -3084 -328 -984 -505 -2008 -581 -3360 -17 -304 -23 -1316 -10 -1725 30
-965 62 -1448 251 -3775 76 -944 128 -1724 150 -2265 15 -369 18 -431 40 -650
30 -303 75 -854 115 -1400 137 -1874 198 -2520 315 -3330 15 -110 31 -227 35
-260 12 -106 45 -244 122 -500 102 -341 140 -493 159 -638 48 -364 -63 -575
-362 -686 -386 -144 -765 -503 -964 -915 -354 -733 -270 -1685 214 -2416 46
-69 105 -161 131 -205 180 -300 435 -589 690 -781 730 -548 1685 -732 3229
-619 150 11 251 12 438 5 492 -19 1327 -10 1958 20 226 11 815 46 935 55 168
13 339 76 470 175 148 110 268 150 452 150 101 0 155 -8 466 -70 1514 -299
2947 -484 4542 -585 897 -56 1494 -70 3075 -70 1318 0 1563 4 2375 40 3925
176 6970 831 9200 1979 749 386 1348 785 1950 1300 190 163 630 605 795 800
819 964 1354 2068 1609 3321 102 504 125 707 211 1860 295 3984 414 6163 482
8805 7 281 12 1027 13 1775 0 1392 0 1381 -56 1815 -214 1652 -969 3281 -2210
4772 -374 448 -822 913 -1257 1303 -69 62 -126 121 -130 135 -4 14 -7 84 -6
155 0 120 3 138 33 225 58 172 158 327 419 650 191 237 309 439 353 605 19 71
21 105 20 305 -2 250 -15 371 -61 545 -121 460 -405 827 -890 1152 -175 117
-230 192 -272 370 -11 48 -29 124 -39 168 -10 44 -33 107 -49 140 l-31 60 38
30 c259 202 464 527 554 874 110 427 60 880 -141 1280 -103 206 -221 369 -395
546 -222 226 -282 361 -291 650 -3 83 -1 156 4 163 6 9 30 0 100 -38 429 -233
1144 -479 1669 -575 256 -46 385 -58 628 -59 307 -1 450 22 652 106 l71 29 59
-29 c107 -54 192 -67 438 -66 246 0 386 17 663 79 383 86 809 239 1012 364
l48 30 164 -1 c309 0 505 49 1028 254 140 55 299 116 354 134 l98 33 52 -53
c97 -103 212 -315 251 -466 19 -75 33 -189 80 -670 295 -3059 390 -6417 305
-10830 -21 -1081 -42 -1930 -105 -4155 -47 -1658 -72 -2627 -85 -3250 -6 -286
-20 -686 -32 -890 -24 -425 -28 -908 -9 -1090 62 -588 246 -907 593 -1026 142
-48 333 -62 470 -34 160 33 330 151 431 299 147 216 225 551 197 841 -41 427
-141 2786 -195 4605 -120 4080 -136 8771 -45 13425 34 1710 51 2337 75 2665
56 751 189 1336 412 1810 52 111 58 120 186 250 151 154 204 215 305 351 349
473 561 1040 634 1694 17 158 17 631 0 795 -96 890 -431 1672 -1023 2385 -111
133 -378 405 -514 523 -486 421 -1031 704 -1570 816 -199 41 -298 50 -550 51
l-240 0 -46 28 c-109 65 -266 107 -468 127 -94 9 -406 11 -526 3z m667 -478
c68 -24 142 -95 174 -165 18 -38 38 -64 58 -75 91 -53 147 -118 177 -208 15
-45 27 -59 91 -107 55 -42 79 -67 98 -106 14 -28 63 -99 110 -158 247 -312
474 -710 625 -1096 32 -80 86 -208 120 -285 186 -415 329 -837 465 -1367 l68
-268 -38 -147 c-46 -178 -69 -245 -110 -322 -102 -190 -236 -200 -367 -27 -69
92 -127 220 -195 431 -34 105 -172 496 -308 870 -228 628 -253 691 -325 820
-297 532 -579 924 -899 1253 -77 79 -158 155 -180 170 -23 16 -49 45 -60 69
-17 35 -44 57 -161 136 -128 86 -145 95 -197 99 -69 6 -106 29 -173 111 -56
68 -75 71 -158 27 -103 -54 -192 -36 -333 67 -35 26 -64 50 -64 54 0 6 306 84
530 134 158 35 432 81 565 94 61 6 126 13 145 15 87 10 296 -2 342 -19z m880
-181 c526 -151 947 -350 1297 -611 108 -81 285 -247 626 -588 282 -281 498
-627 654 -1048 78 -211 79 -214 48 -261 -31 -44 -34 -62 -41 -216 -6 -143 -36
-299 -82 -433 -64 -183 -131 -291 -287 -461 -131 -143 -212 -173 -328 -124
-36 16 -36 17 -68 144 -188 755 -466 1494 -793 2109 -219 411 -647 952 -999
1262 -115 100 -182 146 -249 168 -59 20 -63 48 -10 76 49 27 91 24 232 -17z
m-3032 -124 c56 -16 107 -65 143 -140 30 -62 44 -78 133 -148 54 -43 119 -100
143 -128 41 -45 101 -154 101 -181 0 -6 44 -63 98 -125 303 -352 532 -737 777
-1313 42 -99 111 -249 151 -333 246 -506 440 -1030 619 -1677 26 -93 76 -255
112 -360 202 -597 350 -1261 454 -2045 34 -254 33 -322 0 -389 -36 -70 -101
-116 -245 -172 -249 -97 -521 -184 -832 -267 l-111 -30 -22 187 c-150 1264
-415 2393 -808 3435 -255 676 -590 1362 -961 1966 -318 518 -731 1071 -887
1189 -30 23 -62 53 -71 66 -15 23 -15 27 0 50 22 34 30 37 248 109 106 35 323
116 482 180 159 64 305 121 325 125 50 12 110 13 151 1z m-1427 -586 c79 -40
130 -86 234 -213 53 -64 116 -137 140 -162 l45 -46 -49 -7 c-64 -8 -155 8
-217 38 -68 33 -124 93 -186 196 -47 80 -50 89 -50 153 0 78 4 80 83 41z
m-153 -311 c96 -147 197 -291 223 -321 26 -29 57 -74 68 -100 32 -73 37 -80
151 -249 246 -366 450 -777 650 -1313 44 -118 112 -294 150 -390 233 -581 416
-1133 533 -1600 24 -96 51 -193 61 -215 64 -152 179 -505 253 -780 117 -433
338 -1502 325 -1578 -7 -43 -43 -91 -85 -112 -15 -8 -171 -44 -346 -81 -175
-36 -432 -90 -571 -120 -139 -30 -270 -54 -293 -54 -56 0 -98 24 -116 68 -8
20 -30 140 -49 267 -161 1087 -403 2077 -707 2890 -212 567 -647 1513 -887
1930 -217 377 -448 695 -701 968 -55 59 -94 107 -87 107 7 0 56 -7 108 -15 52
-8 95 -13 97 -11 2 1 -22 20 -54 42 -148 102 -152 214 -12 326 63 49 559 377
656 432 114 66 252 124 358 152 50 12 92 23 95 23 3 1 84 -119 180 -266z
m-1968 -930 c38 -22 108 -127 184 -275 31 -62 87 -156 124 -208 272 -386 528
-874 724 -1382 24 -62 76 -187 116 -278 162 -376 342 -901 428 -1255 26 -104
38 -378 20 -438 -16 -53 -70 -107 -144 -143 -82 -40 -183 -40 -266 -1 -98 48
-157 123 -258 331 -70 145 -304 662 -377 836 l-15 35 -18 -23 c-10 -12 -28
-53 -41 -90 -12 -37 -30 -83 -39 -102 -18 -35 -57 -77 -64 -69 -11 12 -83 166
-217 466 -175 392 -311 674 -395 823 -283 494 -300 521 -428 655 -102 107
-136 165 -143 244 -7 79 19 134 106 224 38 40 110 125 159 190 109 144 306
363 376 416 82 64 118 73 168 44z m3658 -824 c0 -4 41 -96 91 -205 284 -621
386 -884 444 -1146 14 -65 15 -80 3 -96 -42 -59 -354 -410 -359 -404 -8 9
-629 1747 -629 1761 0 14 54 51 93 62 17 5 82 13 142 18 80 6 122 14 150 29
37 19 41 19 53 4 6 -8 12 -19 12 -23z m4464 -389 c44 -134 81 -280 102 -400
l16 -94 -22 -18 c-30 -25 -78 -23 -156 7 -90 34 -120 33 -161 -7 -22 -22 -33
-27 -33 -17 0 9 -43 183 -95 388 -52 205 -95 377 -95 382 0 5 26 9 58 9 98 1
163 44 214 143 l20 40 59 -164 c33 -90 74 -211 93 -269z m-8980 129 c28 -22
295 -415 413 -609 221 -363 417 -763 563 -1150 34 -91 95 -239 135 -330 300
-679 502 -1311 630 -1973 42 -214 42 -221 -10 -246 -26 -13 -51 -6 -399 107
-204 67 -434 140 -510 162 -76 23 -216 75 -310 117 -268 118 -388 152 -531
153 l-60 1 -117 127 c-265 289 -429 531 -442 654 -3 31 -29 121 -57 200 -42
120 -52 161 -59 253 -6 61 -14 155 -20 210 -21 217 -9 498 31 743 62 378 180
719 396 1152 144 288 213 404 256 431 41 24 58 24 91 -2z m2981 -1904 c54
-176 113 -350 131 -386 41 -82 60 -149 78 -269 11 -71 11 -97 3 -102 -7 -4
-39 -8 -72 -8 -137 -1 -260 -33 -312 -82 -13 -12 -25 -19 -29 -16 -3 3 -29 86
-58 184 -29 99 -88 286 -131 416 -91 277 -98 237 57 355 121 91 173 144 201
205 13 29 24 43 28 35 4 -7 51 -156 104 -332z m-3945 -311 c18 -47 11 -62 -68
-141 -85 -84 -69 -57 -255 -445 -119 -248 -195 -341 -325 -399 -37 -17 -72
-33 -78 -37 -5 -4 -46 -31 -90 -60 -104 -69 -250 -129 -464 -193 -352 -103
-576 -174 -1130 -354 -834 -271 -1069 -342 -1489 -446 -183 -46 -255 -68 -290
-90 -65 -42 -184 -77 -282 -84 -69 -5 -108 -15 -229 -62 -558 -215 -1037 -352
-2200 -628 -223 -53 -652 -157 -955 -232 l-550 -135 -685 -9 c-377 -5 -713
-11 -747 -15 -37 -3 -69 -1 -82 5 -22 12 -56 69 -47 78 2 3 359 103 793 223
935 259 2423 718 3873 1195 223 73 594 195 825 270 682 223 1215 411 1640 577
140 55 295 107 395 133 309 82 620 190 1017 356 241 101 223 94 860 325 249
90 465 170 480 178 43 23 72 20 83 -10z m-9935 -234 c1635 -42 3191 -152 4295
-305 135 -19 333 -39 440 -45 250 -14 427 -32 720 -76 129 -19 325 -48 435
-64 110 -16 231 -34 268 -41 l68 -11 -52 -24 c-49 -23 -64 -25 -278 -28 -475
-9 -790 -62 -1655 -277 -554 -138 -689 -175 -1101 -304 -502 -156 -736 -220
-995 -270 -79 -15 -157 -37 -189 -52 -51 -25 -63 -27 -180 -25 -131 1 -192 -6
-198 -24 -2 -6 14 -30 35 -55 70 -79 92 -118 92 -164 l0 -43 -82 -13 c-66 -10
-473 -12 -1975 -10 -1103 1 -2057 -3 -2285 -9 -2342 -61 -4060 -257 -5768
-655 -319 -74 -438 -90 -603 -81 -196 10 -422 68 -579 147 -42 21 -110 40
-241 65 -364 71 -606 143 -799 239 -176 88 -307 186 -475 357 -124 127 -128
170 -38 341 79 148 150 211 375 330 324 171 576 248 1310 397 245 50 486 99
535 110 50 10 156 26 236 35 80 8 182 22 225 31 808 155 1741 269 2979 364
1167 89 2169 140 3200 163 333 8 1955 5 2280 -3z m20120 -734 c-33 -163 -128
-397 -219 -540 -34 -54 -39 -71 -71 -261 -109 -648 -168 -1380 -190 -2370 -12
-526 -26 -2062 -25 -2785 0 -741 -9 -1472 -30 -2365 -16 -655 -17 -854 -2
-1000 9 -94 13 -487 17 -1405 9 -2499 31 -4707 56 -5665 6 -220 12 -584 14
-810 3 -366 22 -1003 110 -3825 30 -967 31 -987 61 -1350 13 -162 24 -342 24
-400 0 -208 -56 -329 -208 -449 -104 -84 -177 -88 -257 -15 -22 20 -54 47 -72
61 -47 36 -119 148 -143 223 -12 36 -27 106 -32 155 -11 96 -8 208 112 4965
38 1472 60 2525 60 2808 0 304 5 515 15 640 11 148 17 624 26 2257 15 2736 5
4273 -31 4580 -5 44 -14 337 -19 650 -35 1980 -100 3310 -221 4552 -45 452
-138 816 -267 1041 -78 135 -148 216 -290 335 -73 60 -133 113 -133 116 0 3
51 16 113 28 421 82 816 261 1134 513 128 102 311 285 408 407 l70 88 3 -49
c2 -27 -4 -86 -13 -130z m-31405 -546 c0 -5 -8 -31 -19 -57 -34 -88 -54 -200
-49 -283 10 -172 112 -284 403 -443 352 -193 784 -348 1360 -490 563 -139
1213 -268 1570 -311 121 -15 438 -60 705 -101 727 -110 1064 -152 1365 -170
61 -4 256 -20 435 -36 1422 -127 2629 -173 3889 -149 623 12 656 13 688 32 41
25 189 37 810 69 342 17 501 20 760 16 420 -7 558 -23 811 -95 l132 -37 0 -48
c0 -63 -23 -111 -67 -138 -38 -24 -197 -74 -283 -90 -65 -13 -160 -6 -329 21
-68 11 -172 22 -230 24 -65 3 -135 13 -179 25 -117 33 -234 44 -367 37 -66 -3
-136 -10 -155 -14 l-35 -8 45 -19 c27 -11 78 -20 130 -22 82 -4 120 -15 120
-32 0 -5 -42 -12 -92 -16 -51 -3 -196 -17 -323 -31 -318 -33 -550 -46 -677
-36 -58 4 -154 4 -212 1 -58 -4 -189 -10 -291 -14 -102 -4 -185 -11 -185 -15
0 -5 21 -17 48 -27 43 -16 79 -18 392 -16 362 2 2041 30 2217 37 l103 4 -6
-27 c-19 -78 -80 -147 -162 -182 -64 -28 -211 -69 -252 -70 -19 -1 -89 2 -156
6 -237 15 -432 -33 -894 -220 -350 -142 -335 -137 -2091 -625 l-966 -268 -519
-220 c-489 -207 -524 -220 -599 -227 -44 -3 -168 -18 -275 -33 -320 -43 -598
-35 -1235 34 -548 60 -1086 150 -1745 293 -248 54 -359 70 -525 77 -156 7
-229 -4 -223 -34 5 -27 56 -45 148 -53 47 -4 346 -59 665 -122 1131 -226 1605
-295 2255 -328 242 -13 637 -7 857 12 130 11 134 11 180 -12 42 -21 67 -24
210 -29 89 -3 164 -8 168 -11 3 -4 -19 -17 -50 -29 -79 -32 -172 -101 -313
-232 -68 -63 -155 -135 -194 -159 -38 -24 -123 -93 -187 -154 -64 -60 -207
-177 -316 -259 -138 -103 -236 -185 -317 -267 -64 -64 -138 -132 -164 -149
-218 -151 -466 -403 -949 -965 -137 -159 -318 -370 -402 -467 -84 -98 -153
-185 -153 -193 0 -16 5 -19 54 -30 l28 -6 -43 -28 c-24 -16 -98 -84 -164 -153
-135 -140 -191 -175 -284 -180 -53 -3 -54 -3 -66 32 -17 49 -1 76 77 130 99
68 118 89 118 129 0 30 -8 43 -57 88 l-57 54 110 -7 110 -7 37 33 c23 20 37
41 37 55 0 43 19 75 133 228 192 257 286 353 742 759 279 248 561 535 543 553
-2 3 -118 18 -258 35 -209 26 -272 30 -362 24 -119 -8 -138 -18 -138 -76 0
-33 17 -43 89 -51 30 -4 59 -11 65 -17 16 -16 -92 -113 -212 -190 -59 -37
-151 -97 -206 -132 l-99 -63 -297 -371 c-169 -209 -331 -401 -375 -442 -143
-133 -293 -186 -464 -163 -154 21 -151 20 -151 51 0 16 -7 57 -16 92 -14 53
-15 96 -9 278 8 245 -3 321 -56 405 -17 26 -28 49 -26 52 6 5 230 -33 331 -57
181 -44 331 -33 473 34 143 68 227 136 526 425 177 172 245 221 305 221 19 0
22 5 22 38 0 34 10 51 79 133 159 190 407 416 715 653 99 76 146 106 166 106
15 0 41 3 58 6 26 5 30 9 22 24 -16 30 -88 48 -230 60 -1502 117 -2074 174
-2533 255 l-198 35 -39 -31 -38 -31 -89 12 c-114 15 -216 38 -471 105 -288 77
-393 96 -562 102 -134 5 -198 -1 -342 -29 -10 -2 -13 31 -14 137 0 121 -4 147
-22 189 -12 27 -22 61 -22 76 0 102 -90 316 -189 447 -70 93 -310 330 -506
499 -163 141 -291 272 -310 317 -7 18 -32 50 -55 72 -85 82 -84 121 2 176 27
18 47 37 45 43 -2 6 -19 15 -37 20 -19 6 -60 36 -95 71 -159 155 -207 426
-114 642 49 115 138 193 220 193 35 0 826 -191 1554 -375 455 -115 659 -156
1225 -245 507 -80 623 -101 920 -165 158 -35 273 -47 600 -65 221 -12 338 -30
464 -70 68 -22 113 -30 167 -30 101 0 237 -17 289 -35 68 -24 2658 -187 2831
-178 71 3 301 0 511 -7 379 -12 637 -6 723 19 l30 8 -30 13 c-105 42 -141 45
-450 42 -180 -1 -338 2 -395 9 -169 20 -346 29 -790 38 -977 21 -1857 95
-2740 231 -69 11 -262 33 -430 50 -795 80 -1218 138 -1665 230 -104 22 -246
46 -315 55 -438 55 -959 174 -1564 356 -267 81 -352 100 -691 158 -271 47
-462 89 -563 125 -23 8 -130 76 -237 151 -185 129 -225 154 -225 142 0 -4 -7
-32 -16 -64 -10 -39 -18 -137 -24 -303 -7 -190 -13 -262 -29 -321 -37 -144
-172 -380 -304 -531 l-67 -77 70 -62 c201 -180 438 -314 910 -514 248 -105
298 -129 420 -211 193 -129 390 -314 569 -533 l84 -103 -44 7 c-487 75 -1101
281 -1630 546 -248 124 -446 286 -559 457 -44 65 -56 79 -62 65 -4 -10 -28
-117 -53 -238 -62 -301 -97 -429 -151 -559 -65 -157 -87 -239 -79 -304 12
-110 74 -192 247 -327 411 -319 934 -587 1568 -803 113 -38 261 -90 330 -115
69 -26 161 -59 205 -75 99 -37 115 -57 94 -122 -17 -54 -57 -85 -107 -84 -20
1 -93 20 -162 42 -69 22 -258 79 -420 127 -643 189 -926 304 -1215 496 -160
107 -264 195 -378 325 -106 120 -162 200 -255 362 -306 534 -290 925 55 1352
78 96 226 245 369 371 86 76 122 114 148 162 44 79 66 156 66 227 0 31 9 91
20 133 23 90 36 239 50 542 10 219 31 373 53 387 26 17 65 6 116 -32 29 -22
64 -40 77 -40 29 0 29 2 7 43 -10 20 -16 55 -16 92 0 112 55 183 302 384 113
92 128 101 166 101 26 0 72 13 121 35 79 34 124 44 124 25z m21123 -119 c48
-16 96 -36 107 -46 11 -10 49 -74 85 -142 73 -138 101 -231 90 -302 -11 -71
-23 -88 -73 -102 -31 -8 -74 -37 -134 -86 -74 -62 -93 -73 -125 -73 -69 0
-160 -29 -321 -100 -180 -79 -385 -139 -1002 -294 -936 -235 -1829 -409 -2855
-555 -1605 -229 -2180 -291 -3127 -337 l-137 -6 -25 25 c-20 20 -26 36 -26 71
0 57 24 76 97 76 29 0 72 6 95 14 24 8 140 36 258 61 522 113 974 230 1430
370 496 153 753 184 1700 205 239 5 504 17 588 25 599 59 1214 203 1972 460
239 82 393 146 516 216 180 103 336 263 416 429 l42 86 60 2 c34 1 86 9 116
16 88 23 155 19 253 -13z m-696 -124 c13 -83 -31 -159 -121 -212 -53 -31 -361
-170 -546 -247 -782 -326 -1501 -474 -2124 -439 -152 9 -175 8 -239 -9 -90
-24 -141 -25 -192 -1 -34 15 -37 19 -20 24 11 3 416 117 900 252 484 136 1004
282 1155 325 151 43 343 97 426 119 172 46 347 105 447 150 38 17 83 31 101
31 43 0 143 27 169 45 26 18 36 9 44 -38z m-9612 -427 c873 -22 1572 -56 2615
-126 135 -10 249 -20 253 -24 19 -17 -281 -127 -438 -162 -83 -18 -433 -16
-870 5 -1776 85 -3389 74 -4805 -34 -1465 -111 -2706 -255 -3545 -410 -121
-22 -254 -47 -295 -54 -241 -43 -510 -22 -829 67 -86 23 -110 33 -96 39 49 21
774 165 1223 244 1459 256 3086 412 4747 454 438 12 1600 12 2040 1z m9919
-472 c2 -7 13 -65 25 -128 13 -65 37 -150 56 -195 33 -78 34 -83 37 -242 2
-134 0 -165 -12 -177 -50 -47 -312 -147 -850 -324 -1359 -447 -2862 -777
-4580 -1006 -1002 -134 -2287 -260 -3165 -310 -449 -26 -531 -29 -520 -18 6 5
242 164 525 352 405 269 526 355 568 401 180 197 452 369 727 459 231 75 417
103 795 120 410 19 643 37 1545 125 532 51 574 57 635 80 30 12 103 22 220 30
149 10 198 18 332 53 206 55 473 107 918 182 564 95 700 122 1205 246 742 181
1498 362 1518 363 10 1 19 -5 21 -11z m-9604 -158 c335 -31 785 -109 763 -131
-14 -14 -254 -102 -441 -163 -486 -156 -1037 -260 -1631 -306 -264 -20 -710
-32 -966 -26 -603 15 -1646 55 -2105 81 -432 25 -953 70 -857 74 51 2 94 28
182 109 116 108 141 120 301 132 167 14 336 33 664 76 560 73 592 75 1255 84
508 7 692 13 1100 39 269 18 566 36 660 41 215 11 923 5 1075 -10z m11151
-2206 c-31 -168 -127 -280 -388 -457 -152 -102 -245 -143 -568 -254 -104 -35
-226 -79 -270 -98 -81 -33 -494 -159 -501 -153 -8 9 39 70 75 96 21 15 84 43
140 61 64 20 118 45 147 67 29 22 89 50 160 75 529 182 877 383 1134 655 41
44 76 76 78 72 2 -4 -2 -32 -7 -64z m-22669 -34 c87 -69 128 -123 135 -178 5
-39 -10 -107 -27 -117 -5 -3 -41 10 -80 30 -138 69 -208 165 -180 243 14 41
47 82 65 82 7 0 46 -27 87 -60z m10980 -224 c29 -36 100 -76 136 -76 12 0 22
-4 22 -10 0 -14 -209 -117 -429 -212 -245 -105 -337 -154 -490 -256 -361 -244
-723 -529 -1250 -988 -391 -341 -452 -390 -563 -460 l-113 -70 -238 12 c-132
7 -241 14 -243 17 -7 6 256 259 402 387 478 418 1014 755 1587 996 106 44 218
87 397 150 12 4 9 11 -13 30 -43 37 -69 39 -161 10 -102 -32 -155 -33 -187 -6
l-24 20 40 36 c212 191 426 292 850 399 116 30 219 54 230 54 11 1 32 -14 47
-33z m8687 -110 c-20 -20 -745 -225 -1204 -341 -403 -102 -1906 -446 -2425
-556 -113 -24 -1264 -211 -1800 -293 -513 -79 -877 -128 -1145 -155 -187 -19
-279 -25 -800 -51 -110 -5 -290 -19 -400 -30 -335 -33 -500 -41 -735 -35 -235
7 -289 16 -325 55 -16 18 -15 20 27 46 79 50 208 105 306 131 92 24 117 25
482 33 782 18 1398 85 2480 270 523 90 741 122 1440 214 500 66 582 80 625
101 37 18 90 30 205 45 409 54 811 123 1555 270 1033 204 1745 327 1714 296z
m-4978 -373 c27 -14 46 -30 42 -34 -11 -10 -153 -52 -298 -88 -267 -66 -478
-102 -1035 -175 -521 -69 -541 -71 -981 -96 -535 -30 -783 -56 -1007 -108 -88
-21 -92 -19 -72 33 14 38 112 128 211 194 99 67 200 111 331 146 189 50 263
53 1063 47 427 -3 610 4 1030 39 204 17 649 62 664 68 2 0 25 -11 52 -26z
m7379 -51 c20 -20 31 -44 36 -77 8 -59 12 -55 -155 -138 -68 -34 -144 -79
-168 -101 l-44 -39 -147 13 c-81 6 -153 13 -160 16 -10 3 -8 13 9 44 31 56 61
81 164 140 50 28 101 62 115 75 23 21 27 22 50 10 43 -24 84 -18 141 21 110
74 119 76 159 36z m-20423 -155 c8 -16 15 -50 14 -76 -1 -49 -46 -215 -79
-293 -12 -26 -44 -120 -73 -210 -52 -164 -95 -264 -143 -327 -15 -20 -26 -48
-26 -65 0 -17 -7 -71 -15 -121 -23 -138 -20 -239 9 -301 27 -57 89 -115 152
-141 24 -10 44 -21 44 -24 0 -4 -18 -50 -40 -104 -189 -452 -319 -875 -371
-1202 -24 -152 -37 -496 -24 -647 6 -81 8 -85 36 -97 17 -6 66 -52 111 -100
91 -100 126 -125 184 -135 l41 -6 -42 86 c-24 48 -50 117 -60 154 -23 90 -30
266 -16 377 20 149 169 700 202 747 34 47 80 52 194 23 54 -14 113 -26 132
-27 18 -1 33 -3 33 -5 0 -2 -18 -27 -41 -55 -79 -101 -143 -256 -185 -448 -27
-122 -27 -478 0 -600 21 -96 60 -218 87 -271 21 -42 621 -568 696 -611 226
-128 533 -36 648 194 44 88 49 165 13 172 -198 40 -329 60 -503 76 -247 23
-346 40 -459 80 -87 31 -362 169 -336 170 8 0 290 -25 625 -56 720 -67 886
-73 1005 -36 223 69 406 236 516 471 15 31 32 59 38 63 16 11 210 10 239 -1
81 -31 12 -149 -240 -412 -182 -190 -221 -238 -203 -249 18 -11 76 -18 235
-29 153 -11 219 -32 298 -94 l52 -42 -165 -8 c-91 -4 -298 -6 -460 -4 -369 5
-413 -3 -493 -92 -41 -46 -64 -87 -107 -197 -31 -76 -31 -78 -16 -125 29 -86
20 -117 -35 -125 -56 -9 -93 -55 -124 -156 -25 -84 -61 -155 -72 -144 -11 11
-32 176 -26 210 7 47 -20 98 -65 124 -21 11 -124 38 -237 62 -400 84 -492 117
-581 212 l-50 53 -56 -28 c-126 -62 -236 -48 -446 60 -105 54 -199 91 -354
143 -117 38 -214 67 -217 64 -12 -12 51 -116 87 -141 37 -27 38 -29 26 -58
-20 -46 -16 -121 11 -220 14 -49 25 -109 25 -132 l0 -43 -67 0 c-91 0 -198 17
-240 36 -70 34 -79 114 -38 324 14 69 25 153 25 187 l0 61 -86 64 c-65 47 -92
75 -110 110 -56 109 -66 241 -35 455 13 95 14 120 4 111 -31 -25 -55 -83 -78
-186 -13 -60 -31 -127 -41 -148 l-16 -39 -10 35 c-6 21 -8 105 -5 205 9 266
68 506 194 780 226 494 803 1811 812 1855 7 30 57 188 111 350 95 283 140 456
140 535 0 33 2 36 16 24 8 -7 22 -26 31 -42z m1271 26 c57 -20 96 -27 148 -26
l72 0 6 -36 c12 -75 -9 -198 -74 -436 -26 -94 -43 -183 -47 -238 l-6 -87 -83
-50 c-121 -74 -151 -113 -174 -230 -14 -71 -46 -128 -90 -158 -48 -33 -122
-26 -211 18 -35 18 -65 33 -67 35 -1 1 23 87 54 191 31 104 65 217 75 252 23
79 54 265 74 442 17 148 28 197 55 250 51 100 130 121 268 73z m-2787 -623
c502 -202 523 -209 718 -254 239 -56 229 -52 264 -84 37 -35 35 -75 -7 -155
-53 -99 -103 -225 -168 -421 -68 -209 -105 -283 -165 -336 -86 -75 -149 -67
-448 60 -88 38 -255 98 -371 134 -260 81 -349 113 -455 166 -102 52 -257 82
-304 59 -33 -16 -62 -53 -70 -89 -6 -25 -1 -27 442 -180 246 -85 587 -202 757
-260 262 -89 312 -109 329 -132 l21 -28 -33 -62 c-18 -35 -39 -97 -46 -138
-17 -90 -51 -130 -110 -130 -114 0 -1087 302 -1145 356 -39 36 -92 53 -195 64
-118 12 -182 38 -235 96 -51 56 -51 80 0 140 23 25 39 49 36 51 -10 11 -110
-31 -141 -59 -19 -16 -59 -68 -91 -116 -31 -48 -67 -98 -79 -112 -15 -15 -58
-126 -115 -290 -77 -223 -97 -269 -121 -288 -81 -65 -101 -168 -50 -258 34
-59 72 -91 241 -206 332 -227 692 -396 1318 -623 l133 -48 -3 -155 -3 -154
-30 -25 c-28 -24 -33 -25 -115 -20 -117 8 -355 58 -486 102 -380 127 -709 382
-1063 825 -135 169 -173 223 -238 345 -228 430 -197 737 112 1105 21 25 42 57
47 72 7 19 59 61 178 144 164 114 171 117 227 119 40 2 84 14 143 39 47 19 99
36 117 36 42 0 168 85 228 153 58 66 110 166 138 264 21 74 22 94 20 400 l-2
321 152 -110 152 -110 516 -208z m3348 -59 c179 -35 229 -73 218 -167 -8 -75
-36 -116 -100 -148 -81 -40 -159 -39 -290 4 l-97 33 -1 41 c-3 165 19 222 97
246 44 13 65 12 173 -9z m-1047 -687 c117 -42 150 -75 164 -161 6 -37 2 -46
-54 -121 -113 -153 -138 -234 -107 -348 l18 -65 26 24 c51 47 74 57 131 57 56
0 110 -23 137 -59 32 -41 1 -106 -73 -152 -50 -30 -138 -24 -188 14 l-36 28
-94 -89 c-52 -49 -120 -106 -152 -127 -128 -85 -256 -96 -388 -31 -106 52
-103 47 -66 97 17 24 64 112 105 194 64 133 80 157 134 207 42 39 80 64 121
79 34 12 65 29 69 38 5 9 11 41 15 71 6 56 140 370 157 370 4 0 41 -12 81 -26z
m19151 -447 c37 -63 128 -144 201 -178 35 -16 105 -40 155 -52 l92 -23 -53
-17 c-1689 -552 -3469 -914 -5788 -1176 -1334 -151 -2950 -257 -4765 -313
-526 -16 -2394 -16 -2830 0 -176 7 -603 17 -949 22 -736 11 -682 2 -673 111 9
110 34 185 74 219 l34 30 359 0 c379 0 552 -10 696 -39 87 -18 146 -18 2284
15 2064 31 2202 34 2320 53 187 30 297 40 600 51 511 19 714 30 1035 55 2532
198 4639 553 6590 1110 182 52 386 112 455 134 69 22 128 40 132 40 3 1 17
-18 31 -42z m1682 -1240 c13 -24 28 -64 31 -90 10 -71 -18 -117 -144 -235
l-109 -100 -188 -82 c-582 -251 -1238 -453 -2060 -635 -588 -130 -762 -157
-975 -153 l-143 3 244 84 c1562 536 2353 830 3074 1145 132 57 241 105 242
105 1 1 14 -18 28 -42z m-16477 -78 c54 -7 92 -16 92 -23 0 -28 -71 -278 -88
-312 -31 -61 -55 -77 -120 -82 -48 -3 -235 28 -249 42 -2 2 8 56 21 120 29
135 64 207 121 249 34 25 46 28 85 23 25 -3 87 -11 138 -17z m12882 -388 c22
-7 16 -11 -45 -29 -917 -278 -2481 -560 -3700 -667 -1563 -137 -1867 -154
-2731 -155 -398 -1 -445 -3 -654 -28 -197 -23 -262 -26 -520 -25 -282 0 -397
5 -915 39 -126 8 -399 18 -605 21 -370 6 -376 6 -430 30 -52 23 -90 27 -670
69 -747 53 -1183 91 -1271 109 -78 16 -141 46 -163 77 -38 54 -8 158 91 321
l35 58 321 -4 c264 -3 339 -6 417 -22 89 -17 158 -19 1058 -19 529 -1 962 -3
962 -6 0 -10 -67 -51 -96 -59 -16 -4 -88 -8 -161 -9 -153 0 -203 -12 -203 -47
0 -13 16 -53 35 -89 19 -37 35 -68 35 -71 0 -3 -297 -5 -660 -5 l-660 0 0 -44
0 -45 518 -4 c284 -2 654 -11 822 -20 997 -53 2447 -60 3445 -17 381 17 896
49 1545 96 338 24 721 51 850 60 221 15 239 18 295 44 50 24 82 31 195 40 581
49 1472 177 2435 350 127 23 250 45 275 50 57 10 118 10 150 1z m-20781 -411
c7 0 48 -33 90 -74 68 -67 93 -83 238 -154 89 -43 201 -92 250 -107 177 -56
254 -110 305 -213 31 -63 33 -73 32 -169 0 -95 -3 -107 -32 -164 -54 -105
-225 -356 -252 -368 -16 -8 -26 -9 -28 -2 -2 5 -13 25 -26 43 -27 41 -68 61
-106 53 -32 -7 -475 -279 -651 -400 -164 -112 -237 -172 -389 -319 -105 -102
-154 -142 -220 -178 -74 -41 -110 -72 -271 -235 -541 -549 -937 -1102 -1279
-1788 -97 -194 -231 -486 -226 -491 1 -1 44 -4 98 -8 l96 -7 78 138 c565 1003
1247 1788 2103 2421 68 51 132 92 142 92 13 0 21 -12 29 -38 11 -42 41 -76 80
-90 15 -5 232 -5 530 0 535 10 671 5 843 -31 56 -12 152 -21 247 -24 286 -10
403 -58 617 -255 172 -157 268 -239 493 -417 96 -77 225 -181 287 -232 l111
-92 -13 -46 c-29 -94 -37 -217 -39 -565 -2 -305 -4 -363 -19 -410 -10 -30 -28
-125 -42 -210 -31 -200 -47 -277 -91 -430 -90 -309 -249 -671 -498 -1131 -53
-97 -125 -247 -161 -333 -35 -86 -113 -258 -171 -384 -59 -125 -140 -299 -181
-387 -258 -553 -470 -1212 -567 -1765 -56 -318 -80 -612 -65 -810 36 -502 146
-928 340 -1310 116 -230 202 -350 442 -617 214 -237 218 -241 374 -350 280
-196 471 -301 702 -385 220 -80 299 -138 364 -267 35 -69 39 -87 77 -335 31
-198 128 -630 166 -735 106 -298 323 -507 639 -617 75 -26 91 -28 235 -28 174
1 274 18 417 74 168 64 368 207 457 325 153 204 225 387 266 682 24 172 50
281 97 393 113 274 312 502 618 709 98 67 276 174 309 187 15 6 16 -40 16
-554 l0 -561 28 3 c15 2 30 4 35 5 4 0 7 6 7 12 0 19 125 173 212 261 46 46
155 149 243 229 319 291 514 513 712 809 196 293 396 710 457 951 65 257 96
508 103 844 8 363 -12 647 -87 1280 -42 346 -37 323 -68 330 -27 6 -27 6 -45
168 -32 297 -82 583 -212 1206 -161 778 -265 1559 -265 2000 l0 97 133 18
c1063 138 1908 188 3857 226 1869 36 2871 100 4385 280 620 73 804 88 1160 96
264 6 272 7 365 36 201 64 493 129 901 203 504 91 1366 277 1864 402 559 140
920 267 1355 478 129 62 264 122 300 134 206 65 373 50 574 -51 82 -41 100
-53 406 -259 102 -68 318 -210 480 -314 599 -383 872 -570 1134 -777 l139
-110 56 6 c31 4 86 21 123 38 49 22 76 29 98 25 22 -5 47 2 99 28 86 44 190
68 401 95 91 12 169 25 173 30 10 9 1 28 -118 235 -531 922 -1228 1741 -2009
2360 -277 220 -391 335 -465 474 -23 43 -38 59 -64 69 -28 10 -36 19 -42 48
-3 20 -35 113 -70 207 -70 191 -95 293 -95 395 l0 68 130 100 c147 112 209
144 294 152 77 7 117 -14 148 -77 18 -38 23 -70 29 -196 6 -128 13 -174 48
-314 43 -171 60 -211 152 -348 100 -147 212 -271 394 -433 61 -54 175 -165
255 -246 324 -333 480 -483 579 -558 93 -69 107 -84 121 -125 29 -87 83 -154
305 -381 300 -307 343 -363 612 -810 88 -146 200 -330 250 -410 599 -965 951
-2042 1048 -3205 56 -686 66 -1379 40 -2845 -28 -1552 -49 -2168 -130 -3720
-14 -261 -38 -743 -55 -1070 -91 -1789 -168 -2942 -260 -3890 -42 -430 -63
-681 -79 -925 -6 -82 -21 -220 -35 -305 -14 -85 -44 -304 -66 -487 -91 -757
-131 -924 -414 -1733 -139 -397 -174 -472 -233 -511 -40 -27 -51 -24 -69 19
-27 62 -22 154 15 257 80 222 77 210 125 666 115 1091 220 2519 252 3404 5
153 10 191 30 250 26 75 26 73 124 1900 103 1932 180 3915 210 5435 9 421 17
2123 13 2745 -1 158 -11 247 -43 380 -15 63 -21 148 -30 395 -21 618 -85 1050
-236 1585 -112 398 -301 903 -389 1040 -41 64 -102 119 -151 136 -45 16 -197
17 -501 5 l-203 -9 0 -38 c0 -30 15 -61 74 -151 185 -285 398 -689 532 -1013
87 -211 211 -586 268 -810 165 -653 225 -1222 232 -2220 3 -308 7 -839 10
-1180 6 -584 4 -692 -35 -1850 -22 -676 -52 -1606 -65 -2065 -34 -1130 -33
-1111 -77 -1645 -6 -77 -13 -324 -14 -550 -2 -386 -3 -415 -23 -490 -29 -105
-41 -263 -35 -460 4 -136 -5 -279 -61 -970 -70 -874 -72 -905 -81 -1220 -25
-903 -90 -1750 -186 -2435 -36 -259 -101 -652 -135 -812 -91 -433 -269 -821
-549 -1193 -188 -250 -325 -389 -548 -555 -93 -69 -221 -165 -285 -213 -144
-110 -274 -188 -392 -237 l-91 -37 -44 23 c-29 14 -72 25 -123 29 -42 3 -183
17 -312 30 -129 14 -444 43 -700 65 -548 47 -861 81 -1135 122 -142 21 -264
32 -420 38 -507 20 -738 37 -1545 110 -708 65 -851 76 -1295 100 -404 22 -577
33 -1332 85 -348 24 -510 32 -528 25 -19 -7 -45 -5 -98 10 -131 35 -234 42
-542 35 -201 -5 -405 -2 -665 9 -1021 42 -1635 56 -2825 63 -1628 9 -3007 -24
-4310 -103 -143 -9 -402 -18 -576 -20 -222 -2 -375 -9 -510 -23 -390 -41 -819
-69 -1394 -91 -220 -9 -445 -29 -1215 -111 -540 -57 -969 -99 -1000 -96 -31 2
-212 -15 -415 -39 -623 -75 -978 -110 -1419 -139 -127 -8 -233 -15 -236 -15
-4 0 -12 -11 -18 -25 -12 -25 -12 -25 -149 -25 -116 0 -153 -4 -228 -25 -204
-55 -459 -71 -639 -40 -271 47 -539 184 -823 420 -149 123 -541 517 -647 650
-368 462 -614 1008 -746 1659 -51 254 -162 1082 -249 1861 -105 936 -193 1910
-326 3600 -101 1287 -114 1445 -140 1672 -19 165 -25 264 -25 440 0 201 -3
235 -21 288 -24 74 -25 81 -99 1000 -142 1780 -208 2815 -250 3920 -15 384 16
1430 56 1895 74 878 244 1626 518 2288 61 149 64 138 -37 144 l-47 3 -85 -255
c-163 -494 -296 -993 -400 -1510 -50 -248 -57 -298 -70 -505 -50 -805 -70
-1469 -60 -1955 5 -190 9 -415 10 -500 2 -129 5 -164 22 -210 19 -50 22 -85
27 -373 13 -701 58 -1524 170 -3162 25 -352 47 -728 51 -835 7 -238 19 -346
53 -470 22 -85 26 -122 33 -360 16 -541 40 -888 129 -1820 32 -344 68 -740 80
-880 68 -832 105 -1227 215 -2290 46 -448 100 -975 120 -1170 50 -491 76 -657
155 -980 77 -312 229 -809 276 -902 49 -97 146 -261 231 -391 468 -713 1123
-1281 2003 -1740 215 -112 1460 -702 1602 -760 22 -9 28 -18 28 -42 0 -59 -22
-150 -46 -192 -26 -44 -89 -83 -137 -83 -14 0 -28 -4 -31 -8 -3 -5 175 -80
394 -167 220 -87 400 -161 400 -165 0 -19 -240 -35 -510 -35 -307 1 -401 9
-760 67 -180 29 -215 31 -450 32 -140 0 -433 -3 -650 -8 -284 -6 -443 -5 -565
3 -861 61 -1542 294 -2140 733 -82 60 -112 96 -178 219 l-36 66 -73 -14 c-111
-22 -231 -14 -300 20 -98 48 -157 130 -218 304 l-37 105 -6 -64 c-4 -41 -26
-119 -61 -214 -58 -161 -76 -236 -76 -324 0 -43 -5 -61 -19 -74 -18 -17 -21
-17 -63 3 -122 58 -135 69 -143 118 -4 26 -27 110 -53 187 -83 256 -69 404 54
598 90 141 215 237 505 389 214 112 296 166 375 244 68 67 105 136 115 209 l6
50 -51 -56 c-112 -122 -229 -206 -546 -388 -312 -180 -388 -240 -480 -377
-111 -166 -147 -381 -95 -578 50 -193 255 -476 561 -776 359 -350 764 -610
1253 -804 338 -133 718 -233 1046 -275 345 -44 643 -48 1545 -19 296 9 425 8
776 -5 661 -26 919 1 1212 125 154 65 159 65 254 36 76 -23 115 -31 144 -28 7
1 4 26 -9 74 -28 108 -28 264 2 340 45 114 131 193 276 254 l70 29 -1 51 c-1
42 1 50 15 47 31 -7 695 -124 703 -124 13 0 9 -67 -6 -103 -19 -47 -66 -82
-143 -107 -37 -13 -102 -40 -143 -61 -49 -25 -99 -42 -145 -49 -87 -13 -151
-36 -168 -61 -9 -11 -35 -23 -66 -29 -87 -16 -146 -56 -254 -171 -71 -77 -105
-122 -121 -162 -38 -93 -70 -128 -221 -242 -102 -77 -159 -106 -260 -132 -66
-17 -176 -18 -1970 -18 -2105 0 -1960 -4 -2310 66 -903 180 -1601 666 -2115
1474 -83 130 -126 226 -156 344 -21 82 -25 121 -26 261 -1 185 22 422 53 545
70 274 278 514 564 650 208 99 317 145 354 151 41 7 143 68 209 126 19 16 51
40 73 54 78 49 230 316 298 523 64 194 76 287 76 576 0 286 -2 297 -79 713
-141 749 -285 1714 -385 2572 -81 689 -117 1071 -211 2205 -39 468 -118 1397
-176 2065 -83 959 -105 1250 -104 1380 0 116 -5 206 -20 305 -33 227 -157
2405 -164 2875 -4 206 -15 636 -26 955 -33 993 -43 1482 -36 1915 12 854 56
1386 147 1814 20 92 20 101 5 132 -15 32 -14 42 10 162 129 655 402 1332 852
2117 41 72 228 354 416 629 l341 498 170 152 c329 294 590 560 842 861 91 108
131 147 243 231 147 112 217 181 330 326 161 206 248 444 266 727 7 98 8 102
28 97 12 -3 27 -6 35 -6z m1685 -218 c30 -148 31 -191 6 -354 -32 -208 45
-378 249 -551 230 -195 400 -306 666 -437 276 -136 479 -209 858 -311 84 -22
175 -51 204 -63 70 -33 129 -96 148 -159 17 -56 20 -174 6 -196 -8 -12 -40
-15 -158 -15 -141 -1 -150 -2 -183 -26 l-35 -25 140 -32 c77 -19 146 -35 152
-38 9 -3 3 -18 -18 -49 -103 -154 -139 -305 -184 -777 -9 -91 -27 -219 -41
-285 -75 -354 -70 -453 28 -583 130 -172 159 -339 92 -541 -34 -102 -323 -684
-464 -935 -56 -99 -182 -315 -280 -480 -483 -817 -668 -1189 -806 -1625 -25
-80 -58 -174 -74 -210 -43 -97 -59 -161 -81 -315 -11 -77 -37 -228 -59 -335
-56 -278 -72 -435 -73 -695 0 -246 10 -362 53 -578 117 -581 422 -1085 900
-1484 142 -119 361 -268 500 -341 260 -137 609 -239 980 -288 191 -25 633 -30
845 -10 1008 96 1851 524 2365 1201 39 52 120 186 190 315 97 180 127 246 150
329 39 136 65 275 84 441 72 631 24 1090 -205 1965 -171 653 -171 653 -224
1080 -38 304 -65 468 -95 585 -20 76 -50 340 -71 615 -17 236 -23 1052 -10
1436 23 684 53 923 148 1171 l28 73 80 3 c96 4 133 -10 151 -54 20 -48 18 -75
-20 -262 -98 -479 -136 -881 -136 -1442 0 -334 10 -583 36 -870 8 -91 19 -280
24 -420 20 -532 62 -842 230 -1696 144 -731 195 -1028 237 -1389 24 -212 24
-690 0 -865 -35 -247 -84 -439 -168 -663 -69 -182 -121 -284 -178 -348 -27
-30 -82 -104 -121 -163 -153 -228 -361 -459 -555 -616 -197 -160 -488 -330
-741 -434 -375 -153 -984 -294 -1469 -341 -183 -17 -533 -20 -691 -4 -1144
111 -2083 820 -2461 1859 -49 135 -108 373 -135 541 -29 190 -32 592 -5 829
53 469 115 766 222 1065 24 66 69 201 100 300 166 523 394 1036 696 1560 316
550 475 939 609 1490 134 547 188 1061 209 1985 10 406 10 406 -43 448 -30 23
-48 30 -186 72 -343 105 -859 330 -1105 483 -182 112 -329 264 -399 410 -78
162 -99 321 -73 542 9 72 19 184 22 250 3 66 13 154 21 195 16 76 66 200 81
200 5 0 21 -62 37 -138z m6049 -124 c56 -21 57 -30 57 -471 0 -360 -2 -406
-16 -411 -9 -3 -50 -6 -91 -6 -59 0 -83 5 -110 21 l-34 21 3 404 c3 396 3 404
24 425 37 36 99 43 167 17z m377 -144 c39 -9 174 -18 340 -24 177 -7 300 -15
345 -25 86 -20 33 -15 885 -75 992 -70 1016 -71 1592 -77 511 -6 517 -6 537
-27 11 -12 27 -38 36 -59 l15 -37 -1467 0 -1468 0 -76 25 c-145 46 -275 58
-581 53 l-278 -4 0 139 0 139 28 -7 c15 -4 56 -13 92 -21z m12274 -1339 c32
-8 65 -19 73 -23 15 -9 -191 -57 -687 -158 -1825 -374 -3797 -602 -6005 -694
-763 -31 -1011 -35 -2345 -35 -1321 0 -1893 8 -2465 35 -582 28 -974 51 -1007
60 -57 16 -78 44 -78 106 l0 52 52 23 53 24 2660 7 c2662 6 3080 11 4135 48
311 11 637 20 725 19 88 0 192 -1 230 0 39 0 127 11 195 26 80 16 200 31 339
40 810 56 1618 156 3126 387 292 44 575 87 630 94 118 16 286 11 369 -11z
m-12642 -11 c44 -23 51 -67 51 -294 0 -204 -8 -287 -38 -388 -18 -61 -74 -128
-122 -149 -34 -14 -129 -17 -183 -6 l-33 6 6 96 c5 98 16 143 81 356 33 105
38 134 39 232 2 102 4 113 26 137 13 14 33 27 45 29 31 7 97 -3 128 -19z
m-3596 -654 l53 0 3 -277 c3 -245 5 -282 21 -311 24 -44 67 -69 135 -77 32 -4
76 -15 99 -25 62 -27 64 -50 14 -158 -59 -129 -80 -194 -92 -296 -11 -90 -7
-166 31 -652 12 -152 50 -303 131 -517 33 -89 81 -215 105 -279 75 -199 94
-278 104 -435 12 -170 6 -190 -70 -265 -59 -58 -121 -178 -151 -293 -16 -61
-21 -114 -22 -225 -2 -157 10 -327 22 -314 5 5 32 63 61 129 244 555 352 1109
337 1725 -7 262 -21 402 -73 725 -111 694 -128 871 -116 1245 3 95 1 112 -22
170 -20 49 -23 66 -14 72 34 21 523 1 784 -32 213 -27 254 -37 254 -61 0 -14
7 -19 28 -19 45 0 100 -19 132 -46 44 -38 42 -88 -9 -174 -22 -36 -50 -95 -63
-130 -22 -63 -23 -73 -21 -353 l3 -287 54 -163 c30 -89 84 -277 121 -417 148
-571 275 -840 423 -897 72 -28 222 -25 285 6 51 25 95 79 116 142 14 43 26 55
107 102 l62 35 6 -45 c3 -25 6 -67 6 -93 0 -61 23 -90 76 -99 l39 -6 32 -300
c27 -246 32 -324 27 -430 -10 -234 14 -558 86 -1160 74 -615 93 -887 93 -1315
0 -431 -31 -781 -80 -889 -13 -31 -63 -144 -110 -251 -175 -401 -284 -579
-472 -773 -469 -484 -1072 -747 -1986 -868 -227 -30 -603 -33 -770 -5 -303 49
-548 141 -775 292 -510 338 -844 880 -920 1494 -25 208 -7 519 45 734 59 251
73 280 552 1241 537 1077 680 1377 924 1944 72 168 129 285 146 303 15 16 44
33 64 39 l37 12 7 172 c8 186 -4 547 -35 1085 -28 482 -44 1004 -35 1154 l7
129 76 -7 c41 -3 99 -6 128 -6z m1982 -9719 c-247 -255 -375 -532 -494 -1071
-43 -195 -83 -301 -158 -413 -183 -275 -506 -411 -896 -377 -138 12 -212 30
-305 74 -207 98 -319 281 -421 688 -40 159 -150 701 -160 789 -11 95 20 120
98 81 29 -15 80 -22 254 -32 282 -17 549 -6 924 36 143 16 579 80 619 91 21 5
23 3 18 -13 -7 -18 -6 -18 8 1 10 12 132 66 313 137 163 64 299 117 301 117 2
1 -44 -48 -101 -108z m-2741 -12253 l52 -28 3 -67 3 -68 98 -60 99 -60 116 7
c203 11 252 11 472 -6 118 -9 363 -25 544 -36 302 -18 332 -21 381 -44 29 -13
64 -39 79 -59 l27 -35 597 -6 c328 -3 633 -10 677 -16 44 -5 231 -14 415 -18
305 -8 341 -11 405 -31 39 -13 85 -31 102 -41 30 -17 56 -19 280 -19 222 0
271 -3 468 -30 903 -124 1838 -189 2980 -207 860 -13 1605 24 3375 172 724 60
789 67 836 88 56 26 79 52 144 169 74 131 132 177 225 177 124 0 192 -74 203
-222 2 -43 9 -81 14 -84 18 -11 108 8 140 30 27 18 32 28 30 54 -4 44 14 167
34 229 13 41 32 67 89 123 l73 70 258 0 c315 0 813 -14 1479 -40 844 -33 1231
-42 1706 -38 l455 3 40 -26 39 -26 335 -9 c199 -5 431 -5 572 0 235 9 245 9
1200 -58 530 -36 1001 -70 1048 -75 80 -8 159 -35 175 -61 15 -24 -642 -323
-1109 -504 -662 -258 -1425 -484 -2096 -621 -96 -20 -240 -54 -319 -76 -720
-201 -1328 -317 -2596 -493 -845 -117 -1132 -148 -1520 -161 -99 -3 -220 -12
-270 -20 -361 -57 -877 -103 -1415 -125 -2119 -87 -4027 -75 -5635 36 -895 61
-1494 127 -2465 269 -278 41 -557 77 -620 80 -141 8 -211 21 -270 49 -28 14
-92 29 -170 40 -237 34 -706 115 -955 166 -865 177 -1544 380 -2340 697 -137
55 -322 128 -410 163 -283 111 -533 234 -828 407 -70 42 -126 77 -123 80 2 2
179 25 392 49 353 41 548 54 595 39 14 -5 20 2 28 33 6 21 21 48 34 60 23 22
30 22 348 26 265 3 369 8 569 30 135 15 340 30 455 35 140 6 224 14 253 24 51
18 118 62 126 84 3 8 9 13 14 11 4 -2 30 -15 59 -30z m-2643 -2126 c39 -23 65
-60 76 -108 18 -77 -17 -138 -106 -183 -45 -22 -78 -19 -127 14 -55 36 -75
161 -37 235 11 22 21 40 23 40 1 0 20 7 42 15 44 16 85 12 129 -13z"/>
<path d="M37600 36800 c-13 -8 -13 -10 2 -10 9 0 20 5 23 10 8 13 -5 13 -25 0z"/>
<path d="M37378 26255 c-4 -76 -5 -141 -3 -144 13 -12 15 17 13 145 l-3 139
-7 -140z"/>
<path d="M37381 18364 c0 -11 3 -14 6 -6 3 7 2 16 -1 19 -3 4 -6 -2 -5 -13z"/>
<path d="M15490 34530 c-12 -8 -10 -10 8 -10 13 0 20 4 17 10 -7 12 -6 12 -25
0z"/>
<path d="M7420 34412 c0 -11 108 -77 207 -127 119 -58 294 -117 480 -160 82
-18 252 -63 378 -99 796 -226 1853 -409 3334 -576 299 -34 1670 -181 1686
-180 6 0 64 5 130 12 115 13 118 14 95 29 -46 29 -154 67 -240 84 -54 10 -179
19 -340 25 -201 6 -323 17 -575 49 -176 22 -567 70 -870 106 -1371 165 -2134
286 -2856 455 -92 22 -265 60 -385 86 -158 33 -331 81 -619 171 -220 68 -406
126 -412 128 -7 2 -13 1 -13 -3z"/>
<path d="M7830 33288 c0 -13 119 -97 182 -129 79 -40 207 -75 318 -88 119 -13
442 -33 448 -27 7 7 -174 91 -258 119 -130 45 -269 76 -445 101 -215 31 -245
34 -245 24z"/>
<path d="M12715 32184 c-157 -20 -196 -27 -200 -34 -13 -22 274 -55 390 -46
98 9 205 26 225 36 11 7 9 10 -10 14 -92 21 -336 39 -405 30z"/>
<path d="M21820 22080 c0 -5 5 -10 10 -10 6 0 10 5 10 10 0 6 -4 10 -10 10 -5
0 -10 -4 -10 -10z"/>
<path d="M10705 9631 c-3 -5 -1 -12 5 -16 5 -3 10 1 10 9 0 18 -6 21 -15 7z"/>
</g>
</svg>
